<svg xmlns="http://www.w3.org/2000/svg" width="109.108" height="40.261" viewBox="0 0 109.108 40.261"><defs><style>.a{fill:#3ad29f;}</style></defs><g transform="translate(0 0)"><g transform="translate(0 0)"><path class="a" d="M77.654-191.717c6.916.308,12.621.925,15.507,1.674,3.854.991,19.8,8.744,22.026,10.7,1.168,1.035,2.555,5.154,3.546,10.529.419,2.312.507,9.493.132,10.683-.22.7-.286.727-3.5,1.058l-1.123.132-.132-2.535c-.286-5.176-2.489-8.767-6.652-10.771a11.086,11.086,0,0,0-10.154.022c-4.053,1.916-6.256,5.441-6.585,10.484l-.155,2.379H40.672l-.132-2.929c-.154-4.23-.947-6.211-3.392-8.546a10.494,10.494,0,0,0-8.017-3.062,11.911,11.911,0,0,0-10.969,6.475,14.534,14.534,0,0,0-1.234,5.9l-.154,2.159H15.43a29.072,29.072,0,0,1-5.066-.573c-.419-.132-.419-.331-.308-3.811.243-7.247,1.542-10.374,5.11-12.29a83.909,83.909,0,0,1,13.105-4.449c4.6-1.256,5.264-1.5,12-4.647,13.15-6.123,17.819-7.907,22.026-8.348A140.914,140.914,0,0,1,77.654-191.717Zm-6.387,8.92c.066,2.841.176,5.242.243,5.331.219.22,21.078-1.1,21.078-1.322a23.754,23.754,0,0,0-2.488-4.3c-1.344-1.961-2.907-3.392-4.031-3.744a54.656,54.656,0,0,0-11.74-1.123l-3.172-.022Zm-10.727-4.625a60.908,60.908,0,0,0-16.1,6.035c-3.392,1.762-6.256,3.591-6.675,4.251-.242.374-.22.507.066.793.308.308,1.564.308,13.172-.132,7.07-.286,13.767-.551,14.868-.639l2.049-.133V-188.04l-2.819.132A36.383,36.383,0,0,0,60.539-187.422Z" transform="translate(-9.994 191.816)"/><path class="a" d="M94.929,21.535a8.867,8.867,0,0,1,5.4,5.507,9.132,9.132,0,0,1-.374,5.881A8.392,8.392,0,0,1,86.47,35.39a8.283,8.283,0,0,1,2.247-13.348,6.226,6.226,0,0,1,3.348-.77A9.311,9.311,0,0,1,94.929,21.535ZM91.008,26.8a2.945,2.945,0,0,0-.595,4.955,2.25,2.25,0,0,0,1.828.682,2.926,2.926,0,0,0,2.731-4.361A3.006,3.006,0,0,0,91.008,26.8Z" transform="translate(0.22 2.461)"/><path class="a" d="M757.946,21.494a8.35,8.35,0,1,1-6.41.462,6.147,6.147,0,0,1,3.326-.77A7.6,7.6,0,0,1,757.946,21.494Zm-4.03,5.22a2.945,2.945,0,0,0-.594,4.955,2.986,2.986,0,1,0,.594-4.955Z" transform="translate(-736.475 2.548)"/></g></g></svg>