<svg xmlns="http://www.w3.org/2000/svg" width="39.137" height="38" viewBox="0 0 39.137 38"><defs><style>.a{fill:#d9e4f4;}.b{fill:#454d5d;}</style></defs><g transform="translate(-307 -55)"><path class="a" d="M15,0h9A15,15,0,0,1,39,15v8A15,15,0,0,1,24,38H15A15,15,0,0,1,0,23s-.137-2.263-.137-4.263S0,15,0,15A15,15,0,0,1,15,0Z" transform="translate(307.137 55)"/><circle class="b" cx="3" cy="3" r="3" transform="translate(324 64)"/><circle class="b" cx="3" cy="3" r="3" transform="translate(324 71)"/><circle class="b" cx="3" cy="3" r="3" transform="translate(324 78)"/></g></svg>